<svg id="Layer_1" data-name="Layer 1" xmlns="http://www.w3.org/2000/svg" viewBox="0 0 25 25"><title>Artboard 1</title><g id="_Group_" data-name="&lt;Group&gt;"><g id="_Group_2" data-name="&lt;Group&gt;"><g id="_Group_3" data-name="&lt;Group&gt;"><circle cx="12.5" cy="12.5" r="12.5" style="fill:#ffd21f"/></g></g><g id="_Group_4" data-name="&lt;Group&gt;"><g id="_Group_5" data-name="&lt;Group&gt;"><path d="M7.9,12.73h0A.91.91,0,0,1,7,11.82V9.64a.91.91,0,0,1,.91-.91h0a.91.91,0,0,1,.91.91v2.18A.91.91,0,0,1,7.9,12.73Z" style="fill:#403408"/></g><g id="_Group_6" data-name="&lt;Group&gt;"><path d="M19.28,12.73h0a.91.91,0,0,1-.91-.91V9.64a.91.91,0,0,1,.91-.91h0a.91.91,0,0,1,.91.91v2.18A.91.91,0,0,1,19.28,12.73Z" style="fill:#403408"/></g><g id="_Group_7" data-name="&lt;Group&gt;"><path d="M20.19,9.18v.38a.27.27,0,0,1-.26.26H16.84a.64.64,0,0,1-.64-.64h0a.64.64,0,0,1,.64-.64h2.71A.64.64,0,0,1,20.19,9.18Z" style="fill:#403408"/></g><g id="_Group_8" data-name="&lt;Group&gt;"><path d="M8.81,9.18v.33a.31.31,0,0,1-.31.31h-3a.64.64,0,0,1-.64-.64h0a.64.64,0,0,1,.64-.64H8.16A.64.64,0,0,1,8.81,9.18Z" style="fill:#403408"/></g></g><g id="_Group_9" data-name="&lt;Group&gt;"><path d="M8.06,17.38c-2.2,0-3-.82-3.13-1a.54.54,0,0,1,.81-.73s1.52,1.39,6.4-.15c6.09-1.92,7.78,0,7.95.18a.54.54,0,1,1-.86.67s-1.42-1.5-6.76.18A14.83,14.83,0,0,1,8.06,17.38Z" style="fill:#403408"/></g></g></svg>