<svg id="Layer_1" data-name="Layer 1" xmlns="http://www.w3.org/2000/svg" viewBox="0 0 25 25"><title>Artboard 1</title><g id="_Group_" data-name="&lt;Group&gt;"><g id="_Group_2" data-name="&lt;Group&gt;"><g id="_Group_3" data-name="&lt;Group&gt;"><circle cx="12.5" cy="12.5" r="12.5" style="fill:#ffd21f"/></g></g><g id="_Group_4" data-name="&lt;Group&gt;"><g id="_Group_5" data-name="&lt;Group&gt;"><path d="M5.86,12a.79.79,0,0,1-.39-1.48l1.76-1-1.79-1a.79.79,0,1,1,.78-1.38l3,1.7a.79.79,0,0,1,0,1.38l-3,1.69A.79.79,0,0,1,5.86,12Z" style="fill:#403408"/></g><g id="_Group_6" data-name="&lt;Group&gt;"><path d="M19.17,12a.78.78,0,0,1-.39-.11l-2.93-1.7a.78.78,0,0,1,0-1.35l2.91-1.69a.78.78,0,1,1,.78,1.35l-1.74,1,1.77,1A.78.78,0,0,1,19.17,12Z" style="fill:#403408"/></g></g><g id="_Group_7" data-name="&lt;Group&gt;"><path d="M8,18.07l-.18,0a.63.63,0,0,1-.43-.78,5.33,5.33,0,0,1,5.11-3.78,5.25,5.25,0,0,1,5.07,3.76.64.64,0,1,1-1.23.34,4,4,0,0,0-3.85-2.82,4.07,4.07,0,0,0-3.89,2.86A.64.64,0,0,1,8,18.07Z" style="fill:#403408"/></g></g></svg>