<svg id="Layer_1" data-name="Layer 1" xmlns="http://www.w3.org/2000/svg" viewBox="0 0 25 25"><title>Artboard 1</title><g id="_Group_" data-name="&lt;Group&gt;"><g id="_Group_2" data-name="&lt;Group&gt;"><g id="_Group_3" data-name="&lt;Group&gt;"><circle cx="12.5" cy="12.5" r="12.5" style="fill:#ffd21f"/></g></g><g id="_Group_4" data-name="&lt;Group&gt;"><g id="_Group_5" data-name="&lt;Group&gt;"><path d="M6.81,13h0a.91.91,0,0,1-.91-.91V9.92A.91.91,0,0,1,6.81,9h0a.91.91,0,0,1,.91.91V12.1A.91.91,0,0,1,6.81,13Z" style="fill:#403408"/></g><g id="_Group_6" data-name="&lt;Group&gt;"><path d="M18.19,13h0a.91.91,0,0,1-.91-.91V9.92A.91.91,0,0,1,18.19,9h0a.91.91,0,0,1,.91.91V12.1A.91.91,0,0,1,18.19,13Z" style="fill:#403408"/></g></g><g id="_Group_7" data-name="&lt;Group&gt;"><g id="_Group_8" data-name="&lt;Group&gt;"><path d="M6.32,7.28a3,3,0,0,1-1-.2.36.36,0,0,1,.28-.67,2,2,0,0,0,1.32,0,1.19,1.19,0,0,0,.63-.7A.36.36,0,0,1,8.18,6a1.9,1.9,0,0,1-1,1.11A2.12,2.12,0,0,1,6.32,7.28Z" style="fill:#403408"/></g></g><g id="_Group_9" data-name="&lt;Group&gt;"><g id="_Group_10" data-name="&lt;Group&gt;"><path d="M18.51,7.28a2.12,2.12,0,0,1-.83-.16,1.9,1.9,0,0,1-1-1.11.36.36,0,0,1,.67-.27,1.19,1.19,0,0,0,.64.71,2,2,0,0,0,1.32,0,.36.36,0,1,1,.28.67A3,3,0,0,1,18.51,7.28Z" style="fill:#403408"/></g></g><g id="_Group_11" data-name="&lt;Group&gt;"><g id="_Clip_Group_" data-name="&lt;Clip Group&gt;"><path d="M17,19.22a.29.29,0,0,0,.49-.27h0c-.39-1.3-1.7-4.58-4.94-4.58s-4.57,3.3-5,4.62h0a.29.29,0,0,0,.49.27,7.15,7.15,0,0,1,4.47-1.79A7.19,7.19,0,0,1,17,19.22Z" style="fill:#403408"/></g></g></g></svg>