<svg id="Layer_1" data-name="Layer 1" xmlns="http://www.w3.org/2000/svg" viewBox="0 0 25 25"><title>Artboard 1</title><g id="_Group_" data-name="&lt;Group&gt;"><g id="_Group_2" data-name="&lt;Group&gt;"><g id="_Group_3" data-name="&lt;Group&gt;"><circle cx="12.5" cy="12.5" r="12.5" transform="translate(-0.38 24.6) rotate(-88.21)" style="fill:#ffd21f"/></g></g><g id="_Group_4" data-name="&lt;Group&gt;"><g id="_Group_5" data-name="&lt;Group&gt;"><path d="M5.11,11.81a.64.64,0,0,1-.64-.63,2.94,2.94,0,0,1,.74-2,2.19,2.19,0,0,1,1.6-.63,2.18,2.18,0,0,1,1.6.63,2.9,2.9,0,0,1,.72,1.94.64.64,0,1,1-1.27,0,1.64,1.64,0,0,0-.36-1,.92.92,0,0,0-.69-.24.93.93,0,0,0-.7.25,1.72,1.72,0,0,0-.37,1,.64.64,0,0,1-.63.64Z" style="fill:#403408"/></g><g id="_Group_6" data-name="&lt;Group&gt;"><path d="M16.5,11.81a.64.64,0,0,1-.64-.63,2.94,2.94,0,0,1,.74-2,2.36,2.36,0,0,1,3.2,0,2.9,2.9,0,0,1,.72,1.94.64.64,0,1,1-1.27,0,1.64,1.64,0,0,0-.36-1,1.1,1.1,0,0,0-1.39,0,1.72,1.72,0,0,0-.37,1,.64.64,0,0,1-.63.64Z" style="fill:#403408"/></g></g><g id="_Group_7" data-name="&lt;Group&gt;"><path d="M6.86,14.75a.34.34,0,0,0-.31.46,6.24,6.24,0,0,0,5.92,4,6.34,6.34,0,0,0,6-4.06.34.34,0,0,0-.31-.46Z" style="fill:#fff"/><path d="M12.48,19.8A6.76,6.76,0,0,1,6,15.42a.9.9,0,0,1,.83-1.23l11.27,0a.88.88,0,0,1,.75.4.89.89,0,0,1,.08.84A6.86,6.86,0,0,1,12.48,19.8ZM7.21,15.31a5.63,5.63,0,0,0,5.27,3.37,5.72,5.72,0,0,0,5.32-3.4Zm-.34-.56h0Z" style="fill:#fff"/></g><g id="_Group_8" data-name="&lt;Group&gt;"><path d="M9.53,16.8h0a9.62,9.62,0,0,1-3.28-.94.25.25,0,1,1,.23-.45,9.13,9.13,0,0,0,3.11.88.25.25,0,0,1,0,.5Z" style="fill:#f2f2f2"/></g><g id="_Group_9" data-name="&lt;Group&gt;"><path d="M15.89,16.73a.25.25,0,0,1,0-.5,11.67,11.67,0,0,0,2.5-.7.25.25,0,1,1,.19.46,12.16,12.16,0,0,1-2.61.73Z" style="fill:#f2f2f2"/></g><g id="_Group_10" data-name="&lt;Group&gt;"><g id="_Group_11" data-name="&lt;Group&gt;" style="opacity:0.6000000000000001"><circle cx="3.75" cy="13.91" r="1.82" style="fill:#ff758a"/></g><g id="_Group_12" data-name="&lt;Group&gt;" style="opacity:0.6000000000000001"><circle cx="21.25" cy="13.91" r="1.82" style="fill:#ff758a"/></g></g></g></svg>