<svg id="Layer_1" data-name="Layer 1" xmlns="http://www.w3.org/2000/svg" viewBox="0 0 25 25"><title>Artboard 1emotion</title><g id="_Group_" data-name="&lt;Group&gt;"><g id="_Group_2" data-name="&lt;Group&gt;"><circle id="_Path_" data-name="&lt;Path&gt;" cx="12.5" cy="12.5" r="12.5" style="fill:#ffd21f"/></g><g id="_Group_3" data-name="&lt;Group&gt;"><g id="_Group_4" data-name="&lt;Group&gt;"><path d="M6.74,13.27h0a.91.91,0,0,1-.91-.91V10.18a.91.91,0,0,1,.91-.91h0a.91.91,0,0,1,.91.91v2.18A.91.91,0,0,1,6.74,13.27Z" style="fill:#403408"/></g><g id="_Group_5" data-name="&lt;Group&gt;"><path d="M18.18,13.27h0a.91.91,0,0,1-.91-.91V10.18a.91.91,0,0,1,.91-.91h0a.91.91,0,0,1,.91.91v2.18A.91.91,0,0,1,18.18,13.27Z" style="fill:#403408"/></g></g><g id="_Group_6" data-name="&lt;Group&gt;"><path d="M19.63,16.62H5.29a.54.54,0,1,1,0-1.09H19.63a.54.54,0,0,1,0,1.09Z" style="fill:#403408"/></g></g></svg>