<svg id="Layer_1" data-name="Layer 1" xmlns="http://www.w3.org/2000/svg" viewBox="0 0 25 25"><title>Artboard 1</title><g id="_Group_" data-name="&lt;Group&gt;"><g id="_Group_2" data-name="&lt;Group&gt;"><g id="_Group_3" data-name="&lt;Group&gt;"><circle cx="12.5" cy="12.5" r="12.5" style="fill:#ffd21f"/></g></g><g id="_Group_4" data-name="&lt;Group&gt;"><g id="_Group_5" data-name="&lt;Group&gt;"><path d="M6.81,12.59h0a.91.91,0,0,1-.91-.91V8.53a.91.91,0,0,1,.91-.91h0a.91.91,0,0,1,.91.91v3.15A.91.91,0,0,1,6.81,12.59Z" style="fill:#403408"/></g><g id="_Group_6" data-name="&lt;Group&gt;"><path d="M18.19,12.59h0a.91.91,0,0,1-.91-.91V8.53a.91.91,0,0,1,.91-.91h0a.91.91,0,0,1,.91.91v3.15A.91.91,0,0,1,18.19,12.59Z" style="fill:#403408"/></g></g><g id="_Group_7" data-name="&lt;Group&gt;"><ellipse cx="12.78" cy="17.26" rx="3.63" ry="4.18" style="fill:#403408"/></g><g id="_Group_8" data-name="&lt;Group&gt;"><g id="_Group_9" data-name="&lt;Group&gt;"><path d="M5.42,5.15a.36.36,0,0,1-.33-.52A2.7,2.7,0,0,1,6.48,3.36,1.9,1.9,0,0,1,8,3.51a.36.36,0,1,1-.33.65A1.18,1.18,0,0,0,6.71,4a2,2,0,0,0-1,.9A.36.36,0,0,1,5.42,5.15Z" style="fill:#403408"/></g><g id="_Group_10" data-name="&lt;Group&gt;"><path d="M19.58,5.13a.36.36,0,0,1-.33-.2,1.94,1.94,0,0,0-1-.89,1.18,1.18,0,0,0-.94.12A.36.36,0,0,1,17,3.52a1.89,1.89,0,0,1,1.5-.16,2.66,2.66,0,0,1,1.37,1.25.36.36,0,0,1-.33.52Z" style="fill:#403408"/></g></g></g></svg>