<?xml version="1.0" encoding="utf-8"?>
<!-- Generator: Adobe Illustrator 19.0.0, SVG Export Plug-In . SVG Version: 6.00 Build 0)  -->
<svg version="1.1" xmlns="http://www.w3.org/2000/svg" xmlns:xlink="http://www.w3.org/1999/xlink" x="0px" y="0px"
	 viewBox="0 0 512 512" style="enable-background:new 0 0 512 512;" xml:space="preserve">
<style type="text/css">
	.st0{display:none;}
	.st1{display:inline;fill:#FEFF00;}
	.st2{fill:#FFFFFF;}
	.st3{fill:#333333;}
	.st4{fill:#EFEFEF;}
</style>
<g id="Layer_3" class="st0">
	<rect class="st1" width="512" height="512"/>
</g>
<g id="Layer_1">
	<path class="st2" d="M28.5,265.2c-0.7-7.5-1.1-10.5-1.1-22.8C55.5,223,79,219.8,261,219.8c0,89.8,0,181.3,0,256.3
		c-117.6,0-215-86.9-231.3-200"/>
	<path class="st2" d="M493.6,265.2c0.7-7.5,1.1-10.5,1.1-22.8c-28.2-19.4-51.7-22.6-233.7-22.6c0,89.8,0,181.3,0,256.3
		c117.6,0,215-86.9,231.3-200"/>
	<g id="XMLID_6_">
		<circle id="XMLID_2_" cx="110.9" cy="101.1" r="52.1"/>
		<circle id="XMLID_4_" class="st3" cx="90.6" cy="85.2" r="18.1"/>
	</g>
	<g id="XMLID_9_">
		<circle id="XMLID_11_" cx="402.9" cy="101.1" r="52.1"/>
		<circle id="XMLID_10_" class="st3" cx="382.5" cy="85.2" r="18.1"/>
	</g>
	<g id="XMLID_13_">
	</g>
	<g id="XMLID_14_">
	</g>
	<g id="XMLID_15_">
	</g>
	<g id="XMLID_16_">
	</g>
	<g id="XMLID_17_">
	</g>
	<g id="XMLID_18_">
	</g>
	<g id="XMLID_19_">
	</g>
	<g id="XMLID_20_">
	</g>
	<g id="XMLID_21_">
	</g>
	<g id="XMLID_22_">
	</g>
	<g id="XMLID_23_">
	</g>
	<g id="XMLID_24_">
	</g>
	<g id="XMLID_25_">
	</g>
	<g id="XMLID_26_">
	</g>
	<g id="XMLID_27_">
	</g>
</g>
<g id="Layer_2">
	<g>
		<path class="st4" d="M173.4,305.7c0,0.1,0,0.2,0,0.3c-0.1,2.4-2.3,4.2-4.6,4c-42.3-4.7-100.6-11.3-139.1-34.1
			c-0.5-3.6-1-7.2-1.3-10.9c35.4,23.6,101,32,141.3,36.5C171.8,301.8,173.4,303.6,173.4,305.7z"/>
	</g>
	<g>
		<path class="st4" d="M348.7,305.7c0,0.1,0,0.2,0,0.3c0.1,2.4,2.3,4.2,4.6,4c42.3-4.7,100.6-11.3,139.1-34.1
			c0.5-3.6,1-7.2,1.3-10.9c-35.4,23.6-101,32-141.3,36.5C350.3,301.8,348.7,303.6,348.7,305.7z"/>
	</g>
</g>
</svg>
