<?xml version="1.0" encoding="utf-8"?>
<!-- Generator: Adobe Illustrator 19.0.0, SVG Export Plug-In . SVG Version: 6.00 Build 0)  -->
<svg version="1.1" baseProfile="tiny" id="Layer_1" xmlns="http://www.w3.org/2000/svg" xmlns:xlink="http://www.w3.org/1999/xlink"
	 x="0px" y="0px" viewBox="0 0 256 256" xml:space="preserve">
<path id="XMLID_19_" fill="#F0F0F0" d="M128-0.35c-70.69,0-128,57.31-128,128s57.31,128,128,128s128-57.31,128-128
	S198.69-0.35,128-0.35z M103.26,58.59c6.86-7.01,15.11-10.51,24.74-10.51c9.62,0,17.87,3.5,24.75,10.51
	c6.86,7.02,10.3,15.33,10.3,24.96c0,9.62-3.44,17.87-10.3,24.74c-6.88,6.88-15.13,10.31-24.75,10.31c-9.63,0-17.88-3.43-24.74-10.31
	c-6.88-6.87-10.31-15.12-10.31-24.74C92.95,73.92,96.38,65.61,103.26,58.59z M198,189H56v-26.27c0-0.7,0.54-1.39,0.63-2.08
	c0.05-0.38,0.36-0.75,0.43-1.13c0.14-0.68,0.445-1.36,0.665-2.03c0.14-0.42,0.363-0.64,0.543-1.07c0.08-0.21,0.242-0.42,0.332-0.42
	H58v-0.41c0-1.04,1.375-2.06,2.065-3.06c1.11-1.62,2.642-3.2,4.293-4.73c0.21-0.18,0.496-0.38,0.716-0.57
	c0.32-0.28,0.688-0.34,1.028-0.62c0.33-0.28,0.718-0.61,1.068-0.61h0.01c0.35,0,0.7-0.77,1.06-1.04c0.01-0.01,0.03-0.135,0.04-0.145
	c0.37-0.27,0.76-0.598,1.15-0.878c0.27-0.17,0.54-0.389,0.81-0.569c0.54-0.36,1.09-0.419,1.64-0.769
	c1.03-0.65,2.07-1.599,3.13-1.599h0.01c0.52-1,1.05-0.905,1.58-1.195c1.07-0.59,2.15-1.303,3.25-1.843
	c0.55-0.27,1.1-0.606,1.65-0.866c0.45-0.21,0.9-0.458,1.36-0.658c0.19-0.09,0.39-0.199,0.59-0.279c0.38-0.17,0.77-0.34,1.16-0.5
	c1.06-0.45,2.12-0.885,3.21-1.285c0.54-0.2,1.08-0.402,1.63-0.592c0.58-0.21,1.16-0.411,1.74-0.601c0.06-0.02,0.12-0.041,0.18-0.061
	c0.44-0.14,0.88-0.28,1.33-0.42c2.07-0.65,4.17-1.22,6.31-1.73c0.98-0.23,1.95-0.45,2.92-0.66c0.14-0.03,0.29-0.07,0.44-0.1
	c0.82-0.17,1.63-0.34,2.44-0.5c0.28-0.06,0.56-0.11,0.84-0.16c0.84-0.16,1.67-0.32,2.5-0.45c0.14-0.04,0.29-0.06,0.43-0.08
	c0.83-0.15,1.65-0.28,2.47-0.4c1.2-0.19,2.4-0.35,3.57-0.49c0.91-0.12,1.81-0.22,2.71-0.31c0.96-0.1,1.92-0.18,2.87-0.25
	s1.89-0.13,2.82-0.18c0.8-0.04,1.6-0.07,2.39-0.09c0.08-0.01,0.16,0.36,0.23,0.36c0.78-0.02,1.54,0.34,2.3,0.34h0.24
	c0.64,0,1.28-0.36,1.93-0.34c0.34,0,0.69-0.175,1.03-0.155c0.61,0.01,1.22-0.053,1.84-0.023c0.87,0.04,1.74,0.054,2.62,0.124
	c0.06,0,0.12-0.013,0.18-0.013c0.07,0,0.13-0.002,0.2,0.008c0.88,0.07,1.77,0.144,2.66,0.234c0.703,0.066,1.409,0.149,2.118,0.237
	c0.76,0.088,1.527,0.185,2.298,0.29c0.599,0.082,1.2,0.17,1.804,0.268c0.5,0.07,0.99,0.15,1.49,0.24c0.7,0.1,1.41,0.23,2.13,0.36
	c0.69,0.12,1.39,0.25,2.09,0.39c0.79,0.15,1.59,0.31,2.39,0.48c0.09,0.02,0.19,0.04,0.28,0.06c0.36,0.08,0.72,0.16,1.09,0.24
	c0.83,0.18,1.67,0.37,2.51,0.57c0.8,0.19,1.59,0.39,2.38,0.6c0.5,0.13,1,0.26,1.5,0.41c0.64,0.17,1.28,0.36,1.92,0.56
	c0.64,0.19,1.27,0.39,1.9,0.6c0.64,0.2,1.27,0.41,1.89,0.64c0.57,0.19,1.14,0.4,1.71,0.62c0.16,0.06,0.32,0.12,0.48,0.18
	c0.48,0.18,0.95,0.36,1.42,0.55c0.07,0.03,0.14,0.05,0.2,0.08c0.45,0.18,0.89,0.36,1.32,0.55c1.12,0.46,2.23,0.95,3.31,1.47
	c0.38,0.17,0.76,0.35,1.13,0.53c0.11,0.06,0.22,0.11,0.32,0.16c0.48,0.23,0.95,0.47,1.42,0.72c0.01,0,0.02,0,0.02,0.01
	c0.54,0.27,1.08,0.56,1.61,0.85c0.55,0.29,1.08,0.59,1.61,0.89c0.29,0.16,0.58,0.33,0.87,0.51c0.77,0.44,1.52,1.24,2.27,1.71
	c0.56,0.34,1.1,0.39,1.64,1.39h0.01c0.27,0,0.54,0.03,0.8,0.21s0.51,0.195,0.76,0.385c0.23,0.17,0.46,0.247,0.67,0.407
	c1.02,0.75,1.97,1.589,2.85,2.369c0.22,0.18,0.42,0.629,0.63,0.629h0.01c1.44,1,2.68,2.86,3.71,4.26c0.15,0.2,0.29,0.74,0.42,0.74
	H195v-0.47c1,1.61,1.775,3.26,2.335,4.96c0.57,1.7,0.665,3.45,0.665,5.24V189z"/>
<g id="XMLID_3_">
	<path id="XMLID_9_" fill="#F0F0F0" d="M182,163.08V173H74v-9.92c0-3.3,6.1-7.22,17.92-11.76c11.82-4.53,23.88-6.8,35.98-6.8
		c12.1,0,24.31,2.27,36.13,6.8C175.85,155.86,182,159.78,182,163.08z"/>
	<path id="XMLID_13_" fill="#F0F0F0" d="M146.56,83.9c0,5.22-1.79,9.55-5.36,12.99c-3.58,3.44-7.98,5.15-13.2,5.15
		c-5.23,0-9.63-1.71-13.2-5.15c-3.57-3.44-5.36-7.77-5.36-12.99c0-5.22,1.79-9.63,5.36-13.2c3.57-3.57,7.97-5.36,13.2-5.36
		c5.22,0,9.62,1.79,13.2,5.36C144.77,74.27,146.56,78.68,146.56,83.9z"/>
</g>
<g id="XMLID_1_">
</g>
<g id="XMLID_2_">
</g>
<g id="XMLID_4_">
</g>
<g id="XMLID_5_">
</g>
<g id="XMLID_6_">
</g>
<g id="XMLID_7_">
</g>
<g id="XMLID_8_">
</g>
<g id="XMLID_10_">
</g>
<g id="XMLID_11_">
</g>
<g id="XMLID_12_">
</g>
<g id="XMLID_14_">
</g>
<g id="XMLID_15_">
</g>
<g id="XMLID_16_">
</g>
<g id="XMLID_17_">
</g>
<g id="XMLID_18_">
</g>
</svg>
